<svg xmlns="http://www.w3.org/2000/svg" width="500" height="190" version="1.0" viewBox="0 0 375 142.5">
<defs><clipPath id="a"><path d="M72 20h93v122H72Zm0 0"/></clipPath><clipPath id="b">
<path d="M.656 0H172v142H.656Zm0 0"/></clipPath><clipPath id="c"><path d="M279 9h95.344v133H279Zm0 0"/>
</clipPath><clipPath id="d"><path d="M317 48h57.344v75H317Zm0 0"/>
</clipPath><clipPath id="e"><path d="M160 0h208v142H160Zm0 0"/>
</clipPath><clipPath id="f"><path d="M98 16h123v126H98Zm0 0"/>
</clipPath></defs><g clip-path="url(#a)">
<path fill="none" stroke="#fff" stroke-width="6.358721479999999" d="m108.375 57.094 2.281 62.097 17.707-.648-2.281-62.102Zm0 0"/></g><path fill="#e3763b" d="m108.37 57.086 2.286 62.106 17.707-.653-2.285-62.105Zm0 0"/><g clip-path="url(#b)"><path fill="none" stroke="#fff" stroke-width="11.85425934" d="M48.527 11.047 9.301 24.309l37.101 109.738 31.29-10.578L61.8 76.457l7.93-2.68c5.851-1.98 11.222-4.285 16.128-7.125 4.868-2.824 8.907-6.187 11.977-9.87 3.094-3.739 4.98-8.04 5.984-12.903.907-4.785.446-10.129-1.582-16.125-1.976-5.848-4.851-10.375-8.488-13.664-3.687-3.074-7.797-5.352-12.523-6.442-4.68-1.066-9.938-1.324-15.512-.578-5.621.719-11.34 2-17.188 3.977Zm7.957 49.691L45.906 29.45c3.29-1.113 6.29-1.64 9.121-1.578 2.856.012 5.348.516 7.5 1.457 2.188.93 3.914 2.18 5.434 3.66 1.531 1.64 2.676 3.457 3.328 5.395.707 2.082.887 4.18.625 6.304-.308 2.102-.922 4.141-2.098 6.208-1.136 2.054-2.875 3.785-5.125 5.562-2.226 1.73-4.914 3.168-8.207 4.281Zm0 0"/></g><path fill="#e3763b" d="M48.52 11.032 9.29 24.298l37.106 109.75 31.293-10.578-15.895-47.016 7.934-2.683c5.84-1.973 11.23-4.297 16.113-7.117 4.887-2.82 8.922-6.184 12.004-9.895 3.086-3.715 4.965-8.02 5.992-12.871.883-4.805.41-10.148-1.617-16.14-1.973-5.837-4.84-10.376-8.453-13.657-3.715-3.086-7.82-5.367-12.524-6.445-4.703-1.078-9.953-1.309-15.546-.582a89.214 89.214 0 0 0-17.176 3.968Zm7.958 49.7L45.9 29.439c3.293-1.114 6.289-1.625 9.14-1.59 2.848.039 5.348.527 7.5 1.469a17.506 17.506 0 0 1 5.414 3.675c1.559 1.645 2.664 3.438 3.325 5.383.707 2.098.918 4.196.625 6.297a17.448 17.448 0 0 1-2.075 6.207c-1.14 2.05-2.882 3.809-5.12 5.57-2.243 1.758-4.938 3.168-8.231 4.282Zm0 0"/><g clip-path="url(#c)"><path fill="none" stroke="#fff" stroke-width="6.8238571199999996" d="m362.625 108.684-23.262-5.204 2.606-11.64 18.644 4.172 3.117-13.942-18.644-4.172 2.601-11.617 20.961 4.692.801-14.461-37.199-8.325-14.562 65.079 39.519 8.843Zm0 0"/></g><g clip-path="url(#d)"><path fill="#ff3a3a" d="m362.623 108.682-23.261-5.203 2.601-11.633 18.649 4.172 3.117-13.942-18.645-4.172 2.602-11.632 20.957 4.691.808-14.457-37.203-8.324-14.562 65.082 39.511 8.844Zm0 0"/></g><g clip-path="url(#e)"><path fill="none" stroke="#fff" stroke-width="9.24268852" d="m315.07 28.176-32.105-1.95-19.516 55.364-12.707-57.32-32.226-1.954-5.47 90.157 19.31 1.172 2.73-45.02 10.184 45.805 25.707 1.558 15.648-44.234-2.734 45.02 25.71 1.558Zm0 0"/></g><path fill="#ff3a3a" d="m315.076 28.163-32.106-1.949-19.535 55.363-12.695-57.316-32.23-1.957-5.47 90.172 19.313 1.172 2.73-45.024 10.184 45.805 25.711 1.558 15.649-44.238-2.73 45.024 25.706 1.558Zm0 0"/><g clip-path="url(#f)"><path fill="none" stroke="#fff" stroke-width="6.359258700000001" d="m155.25 91.898 5.387 25.641 17.633 2.418-9.59-43.578 15.773-18.293-13.207-1.809-13.305 15.371 2.313-16.878-17.555-2.407-8.437 61.563 17.554 2.406 3.34-24.363Zm0 0"/></g><path fill="#e3763b" d="m155.247 91.9 5.387 25.641 17.64 2.414-9.601-43.586 15.77-18.292-13.188-1.81-13.316 15.38 2.312-16.887-17.555-2.402-8.437 61.566 17.555 2.406 3.34-24.359Zm0 0"/><path fill="none" stroke="#fff" stroke-width="6.358721479999999" d="M204.246 76.016h-22.21l-2.196 8.902h22.21Zm0 0"/><path fill="#ff3a3a" d="M204.253 76.01h-22.21l-2.208 8.906h22.215Zm0 0"/>
</svg>